<svg width="256pt" height="256pt" style="isolation:isolate" viewBox="0 0 256 256" xmlns="http://www.w3.org/2000/svg"><path d="m71.091 80.04 1.141 20.864q0 5.053-.652 8.639t-2.608 6.031-5.542 4.075-9.454 3.097q5.705 1.467 9.291 3.26t5.624 4.482q2.037 2.69 2.77 6.439.734 3.749.734 8.965l-1.141 19.071q0 5.542 2.364 8.639 2.363 3.097 9.209 3.586v18.582q-8.965-.326-15.24-1.956-6.276-1.63-10.188-4.972-3.912-3.341-5.705-8.557t-1.793-12.551l1.141-19.723q0-12.062-18.256-16.626v-16.952q18.256-4.075 18.256-15.322L49.901 78.41q0-7.824 1.712-13.122 1.711-5.297 5.623-8.639 3.912-3.341 10.269-4.89 6.357-1.548 15.648-1.874v18.582q-7.009.652-9.535 3.423-2.527 2.771-2.527 8.15zm22.983 92.584 19.234 6.846 46.944-115.73-19.234-6.846-46.944 115.73zm88.672-7.661-1.141-19.071q0-5.216.733-8.965.734-3.749 2.772-6.439 2.037-2.689 5.623-4.482t9.291-3.26q-5.868-1.467-9.454-3.097t-5.542-4.075-2.608-6.031-.652-8.639l1.141-20.864q0-5.379-2.526-8.15-2.527-2.771-9.536-3.423V49.885q9.291.326 15.648 1.874 6.357 1.549 10.269 4.89 3.912 3.342 5.624 8.639 1.711 5.298 1.711 13.122l-1.141 20.701q0 11.247 18.256 15.322v16.952q-18.256 4.564-18.256 16.626l1.141 19.723q0 7.335-1.711 12.551-1.712 5.216-5.624 8.557-3.912 3.342-10.188 4.972-6.275 1.63-15.403 1.956v-18.582q6.846-.489 9.21-3.586 2.363-3.097 2.363-8.639z" fill="#87ceeb"/></svg>